# xmcd
#
# Track frame offsets:
#	150
#	18325
#	41989
#	60509
#	86488
#	113398
#	131530
#	170672
#	198120
#	208427
#	230189
#
# Disc length: 3209 seconds
#
# Revision: 1
# Processed by: cddbd v1.4PL0 Copyright (c) Steve Scherf et al.
# Submitted via: EasyCDDAExtractor 6.0.0.1
#
DISCID=970c870b
DTITLE=Red House - Captured Live !!! [CD1)
DYEAR=2003
DGENRE=Blues
TTITLE0=Drinkin' Whiskey
TTITLE1=Guitar Delta Tone
TTITLE2=Crosscut Saw
TTITLE3=King-Collins Blues
TTITLE4=On the Road
TTITLE5=Red House Shuffle
TTITLE6=Thrill is Gone
TTITLE7=Undercover Man
TTITLE8=Drums Solo
TTITLE9=Move it On Over
TTITLE10=Smokin' Simon
EXTD=
EXTT0=
EXTT1=
EXTT2=
EXTT3=
EXTT4=
EXTT5=
EXTT6=
EXTT7=
EXTT8=
EXTT9=
EXTT10=
PLAYORDER=
